<svg width="32" height="32" viewBox="0 0 32 32" fill="none" xmlns="http://www.w3.org/2000/svg">
  <!-- Background circle with gradient -->
  <defs>
    <linearGradient id="bgGradient" x1="0%" y1="0%" x2="100%" y2="100%">
      <stop offset="0%" style="stop-color:#4C1D95;stop-opacity:1" />
      <stop offset="100%" style="stop-color:#8B5CF6;stop-opacity:1" />
    </linearGradient>
  </defs>
  
  <!-- Background circle -->
  <circle cx="16" cy="16" r="15" fill="url(#bgGradient)" stroke="#4C1D95" stroke-width="1"/>
  
  <!-- Modern book design -->
  <rect x="9" y="11" width="14" height="10" rx="1.5" fill="white" stroke="#4C1D95" stroke-width="1"/>
  
  <!-- Book spine -->
  <rect x="9" y="11" width="3" height="10" fill="#4C1D95"/>
  
  <!-- Book pages -->
  <rect x="12" y="12" width="9" height="8" fill="#F8FAFC"/>
  <line x1="13" y1="14" x2="19" y2="14" stroke="#4C1D95" stroke-width="0.8"/>
  <line x1="13" y1="16" x2="17" y2="16" stroke="#4C1D95" stroke-width="0.8"/>
  <line x1="13" y1="18" x2="15" y2="18" stroke="#4C1D95" stroke-width="0.8"/>
  
  <!-- Modern graduation cap -->
  <path d="M12 7C12 6.44772 12.4477 6 13 6H19C19.5523 6 20 6.44772 20 7V8H12V7Z" fill="#14B8A6"/>
  
  <!-- Cap top -->
  <path d="M11 8L16 11L21 8" stroke="#14B8A6" stroke-width="1.5" fill="none" stroke-linecap="round"/>
  
  <!-- Modern tassel -->
  <circle cx="16" cy="11" r="1" fill="#14B8A6"/>
  <path d="M16 12L14 13.5L16 15L18 13.5L16 12Z" fill="#14B8A6"/>
</svg>