<svg width="48" height="48" viewBox="0 0 48 48" fill="none" xmlns="http://www.w3.org/2000/svg">
  <!-- Background circle with gradient -->
  <defs>
    <linearGradient id="bgGradient" x1="0%" y1="0%" x2="100%" y2="100%">
      <stop offset="0%" style="stop-color:#4C1D95;stop-opacity:1" />
      <stop offset="100%" style="stop-color:#8B5CF6;stop-opacity:1" />
    </linearGradient>
    <linearGradient id="accentGradient" x1="0%" y1="0%" x2="100%" y2="100%">
      <stop offset="0%" style="stop-color:#14B8A6;stop-opacity:1" />
      <stop offset="100%" style="stop-color:#8B5CF6;stop-opacity:1" />
    </linearGradient>
  </defs>
  
  <!-- Background circle -->
  <circle cx="24" cy="24" r="22" fill="url(#bgGradient)" stroke="#4C1D95" stroke-width="2"/>
  
  <!-- Modern book design -->
  <rect x="14" y="16" width="20" height="16" rx="2" fill="white" stroke="#4C1D95" stroke-width="1.5"/>
  
  <!-- Book spine -->
  <rect x="14" y="16" width="4" height="16" fill="#4C1D95"/>
  
  <!-- Book pages with modern lines -->
  <rect x="18" y="18" width="14" height="12" fill="#F8FAFC"/>
  <line x1="20" y1="21" x2="30" y2="21" stroke="#4C1D95" stroke-width="1.2"/>
  <line x1="20" y1="24" x2="28" y2="24" stroke="#4C1D95" stroke-width="1.2"/>
  <line x1="20" y1="27" x2="26" y2="27" stroke="#4C1D95" stroke-width="1.2"/>
  
  <!-- Modern graduation cap -->
  <path d="M18 10C18 8.89543 18.8954 8 20 8H28C29.1046 8 30 8.89543 30 10V12H18V10Z" fill="#14B8A6"/>
  
  <!-- Cap top -->
  <path d="M16 12L24 16L32 12" stroke="#14B8A6" stroke-width="2.5" fill="none" stroke-linecap="round"/>
  
  <!-- Modern tassel -->
  <circle cx="24" cy="16" r="1.5" fill="#14B8A6"/>
  <path d="M24 17.5L21 20L24 22.5L27 20L24 17.5Z" fill="#14B8A6"/>
  
  <!-- Academic star accent -->
  <path d="M36 8C36 7.44772 36.4477 7 37 7C37.5523 7 38 7.44772 38 8C38 8.55228 37.5523 9 37 9C36.4477 9 36 8.55228 36 8Z" fill="#14B8A6"/>
  <path d="M37 6L37.5 7L38.5 7L37.5 7.5L37 8.5L36.5 7.5L35.5 7L36.5 7L37 6Z" fill="#14B8A6"/>
</svg>